<svg xmlns="http://www.w3.org/2000/svg" width="467" height="606.118" viewBox="0 0 467 606.118">
  <g id="Yas_grafix_2020_logo" data-name="Yas grafix 2020 logo" style="isolation: isolate">
    <text id="A_mint_of_Creativity" data-name="A mint of Creativity" transform="translate(1.236 602.118)" fill="#fff" font-size="26" font-family="AristaProAlternate, Arista Pro Alternate" letter-spacing="0.5em"><tspan x="0" y="0">A mint of C</tspan><tspan y="0" letter-spacing="0.48em">r</tspan><tspan y="0">eativity</tspan></text>
    <text id="YAS_Grafix" data-name="YAS Grafix" transform="translate(0 561.118)" fill="#ed642b" font-size="111" font-family="AristaProAlternate, Arista Pro Alternate"><tspan x="0" y="0" letter-spacing="-0.09em">Y</tspan><tspan y="0">AS G</tspan><tspan y="0" letter-spacing="-0.02em">r</tspan><tspan y="0">afix</tspan></text>
    <g id="Group_1" data-name="Group 1" transform="translate(0 0)">
      <path id="Path_1" data-name="Path 1" d="M550.769,205.247a159.361,159.361,0,0,0-12.3-16.4,148.093,148.093,0,0,0-26.078-24.7c-.236-.18-.472-.34-.694-.5A100.135,100.135,0,0,0,487.923,150.9v111.81c.1.777.215,1.569.292,2.374q.791,4.914,1.347,8.406,6.025,17.6,36.275,17.6,39.024,0,39.017-32.437a105.168,105.168,0,0,0-14.084-53.4Zm-24.989,99.031a79.95,79.95,0,0,1-21.858-2.721c18.943,9.086,35.178,22.851,48.464,41.12l.076.118a144.653,144.653,0,0,1,13.445,22.976V290.805C558.252,298.51,545.813,304.278,525.781,304.278Zm15.965,46.153q-26.377-36.261-68.719-45.618-11.89-1.2-21.247-2.186H439.514a9.717,9.717,0,0,1-2.422-.319q-41.557,6.018-69.836,31.375-3.339,3-6.372,6.157,18.741,20.942,39.149,30.736a87.241,87.241,0,0,0,22.455,7.344q12.494,1.09,23.163,1.888c4.456.333,8.69.611,12.675.861h30.667v48.374q0,10.995-14.486,21.157c-2.242,1.569-4.415,2.964-6.539,4.165a49.34,49.34,0,0,1-11.7,4.991h-.09a29.093,29.093,0,0,1-7.3,1,2.674,2.674,0,0,1-.333,0,1.189,1.189,0,0,1-.222,0,2.836,2.836,0,0,1-.333,0,2.459,2.459,0,0,1-.326,0h0a.1.1,0,0,1-.09,0,4.694,4.694,0,0,1-.625,0c-1.069-.049-2.124-.146-3.165-.285a.208.208,0,0,1-.09,0q-9.871-1.451-20.088-9.024a49.576,49.576,0,0,1-4.165-3.471,33.036,33.036,0,0,1-10.683-19.088q-2.2-11.536-3.852-19.512T388.42,395.508q-10.8-3.783-18.957-3.839h-.292q-38.281,0-38.989,31.236v1.2q0,45.049,34.908,79.686,4.352,4.345,8.926,8.114h.042a111.9,111.9,0,0,0,62.409,25.946c2.186.208,4.387.354,6.636.451.75,0,1.485.049,2.242.063h4.776c1.125,0,2.256-.056,3.394-.118l2.138-.132a.326.326,0,0,1,.118,0,10.25,10.25,0,0,0,1.222-.1c2.915-.278,5.858-.694,8.843-1.215.819-.146,1.631-.305,2.45-.472q3.707-.764,7.441-1.784c3.339-.923,6.691-1.992,10.093-3.235q6.49-2.374,13.126-5.553c1.263-.59,2.547-1.229,3.811-1.874s2.561-1.3,3.839-1.992c.34-.167.694-.34,1-.528h0a127.4,127.4,0,0,0,20.393-15.965q36.789-34.63,36.789-85.19Q564.818,382.861,541.745,350.431Zm7.691-278.1Q536.8,66.3,526.912,66.29a54.781,54.781,0,0,0-24.732,6.046Q487.9,79.478,487.9,90.473V136.98a111.7,111.7,0,0,1,30.944,15.6c.208.132.41.278.6.423a140.26,140.26,0,0,1,19.762,16.277,137.593,137.593,0,0,1,22.906,29.285q2.082,3.165,3.839,6.317V89.918Q565.929,79.485,549.436,72.336ZM366.978,177.309q-36.851,34.089-36.83,81.352,0,32.43,39.017,32.423,27.487,0,36.282-17.582,1.02-4.5,1.735-8.295.614-3.249,1.006-5.99V151.307Q385.99,159.5,366.978,177.309ZM391.71,72.336Q379.049,66.3,369.165,66.29q-10.412,0-23.08,6.046Q330.12,79.478,330.12,90.473V202.61a135.258,135.258,0,0,1,24.211-32.659c15.826-15.965,33.86-27.071,53.885-33.165V89.918Q408.189,79.485,391.71,72.336Z" transform="translate(-214.034 -66.29)" fill="#ed642b"/>
      <path id="Path_2" data-name="Path 2" d="M389.655,415.248l-.278-.118a105.315,105.315,0,0,1-38.836-28.459,105.369,105.369,0,0,0-16.194,34.491c7.691-4.977,18.533-8.329,33.741-8.329a66.894,66.894,0,0,1,25.759,5.331c10.5,4,17.534,9.641,20.963,16.833,1.027-1.756,2.18-3.547,3.471-5.393a52.805,52.805,0,0,1,4.394-5.553A179.008,179.008,0,0,1,389.655,415.248Zm152.118-30.431Q515.4,348.556,473.054,339.2q-11.89-1.2-21.247-2.187H439.542a9.714,9.714,0,0,1-2.422-.319q-41.557,6.018-69.836,31.375-3.339,3-6.372,6.157,18.741,20.942,39.149,30.736a87.233,87.233,0,0,0,22.455,7.344q12.494,1.09,23.163,1.888c4.456.333,8.69.611,12.675.861h30.667v48.374q0,10.995-14.486,21.157c-2.242,1.569-4.415,2.964-6.539,4.165a49.336,49.336,0,0,1-11.7,4.991h-.09a29.093,29.093,0,0,1-7.3,1,2.662,2.662,0,0,1-.333,0h-.555a2.445,2.445,0,0,1-.326,0h0a.1.1,0,0,1-.09,0,4.7,4.7,0,0,1-.625,0c-1.069-.049-2.124-.146-3.165-.285a.208.208,0,0,1-.09,0q-9.87-1.451-20.088-9.024a49.588,49.588,0,0,1-4.165-3.471,33.035,33.035,0,0,1-10.683-19.089q-2.2-11.536-3.852-19.512t-16.479-13.466q-10.8-3.783-18.957-3.839H369.2q-38.281,0-38.989,31.236v1.2q0,45.049,34.908,79.686,4.352,4.345,8.926,8.114h.042a109.819,109.819,0,0,0,62.409,25.946c2.187.208,4.387.354,6.636.451.75,0,1.485.049,2.242.063h4.776c1.125,0,2.256-.055,3.394-.118l2.138-.132a.325.325,0,0,1,.118,0,10.249,10.249,0,0,0,1.222-.1c2.915-.278,5.858-.694,8.843-1.215.819-.146,1.631-.305,2.45-.472q3.707-.764,7.441-1.784c3.339-.923,6.691-1.992,10.093-3.235q6.49-2.374,13.126-5.553c1.263-.59,2.547-1.229,3.811-1.874s2.561-1.3,3.839-1.992c.34-.167.694-.34,1-.528h0a127.4,127.4,0,0,0,20.393-15.965q36.789-34.63,36.789-85.19Q564.846,417.247,541.773,384.817Zm-15.965-46.152a79.95,79.95,0,0,1-21.858-2.721c18.943,9.086,35.178,22.851,48.464,41.12l.076.118a144.651,144.651,0,0,1,13.445,22.976V325.192c-7.656,7.7-20.095,13.473-40.127,13.473ZM550.8,239.634a159.363,159.363,0,0,0-12.3-16.4,148.094,148.094,0,0,0-26.078-24.7c-.236-.18-.472-.34-.694-.5a100.136,100.136,0,0,0-23.774-12.758,87.329,87.329,0,0,0-13.744-3.811c-2.9-.562-5.671-1-8.406-1.388-.326-.056-.694-.111-1-.146-.965-.146-1.93-.264-2.9-.382s-1.916-.229-2.874-.305c-3.721-.368-7.274-.541-10.648-.541h-2.638a114.622,114.622,0,0,0-37.483,6.941q-22.212,8.191-41.21,26-36.851,34.089-36.83,81.352,0,32.43,39.017,32.423,27.487,0,36.282-17.582,1.02-4.5,1.735-8.295.614-3.248,1.006-5.99c.264-1.826.437-3.471.555-4.963q2.2-13.188,14.021-22.531,11.675-9.239,25.232-9.322a2.51,2.51,0,0,1,.319,0q24.045,0,33.846,20.13a58.7,58.7,0,0,1,4.394,12.807c.528,2.332.979,4.789,1.333,7.358.1.777.215,1.569.292,2.374q.791,4.914,1.347,8.406,6.025,17.6,36.275,17.6,39.024,0,39.017-32.437A105.167,105.167,0,0,0,550.8,239.634Z" transform="translate(-214.062 -100.676)" fill="#ed642b"/>
      <path id="Path_3" data-name="Path 3" d="M389.658,415.248l-.278-.118a105.314,105.314,0,0,1-38.836-28.459,105.368,105.368,0,0,0-16.194,34.491c7.691-4.977,18.533-8.329,33.741-8.329a66.894,66.894,0,0,1,25.759,5.331c10.5,4,17.534,9.641,20.963,16.833,1.027-1.756,2.18-3.547,3.471-5.393a52.81,52.81,0,0,1,4.394-5.553A179.009,179.009,0,0,1,389.658,415.248Zm152.118-30.431Q515.4,348.556,473.057,339.2q-11.89-1.2-21.247-2.187H439.545a9.715,9.715,0,0,1-2.422-.319q-41.557,6.018-69.836,31.375-3.339,3-6.372,6.157,18.741,20.942,39.149,30.736a87.233,87.233,0,0,0,22.455,7.344q12.494,1.09,23.163,1.888c4.456.333,8.69.611,12.675.861h30.667v48.374q0,10.995-14.486,21.157c-2.242,1.569-4.415,2.964-6.539,4.165a49.334,49.334,0,0,1-11.7,4.991h-.09a29.093,29.093,0,0,1-7.3,1,2.662,2.662,0,0,1-.333,0,1.185,1.185,0,0,1-.222,0,2.836,2.836,0,0,1-.333,0,2.444,2.444,0,0,1-.326,0h0a.1.1,0,0,1-.09,0,4.7,4.7,0,0,1-.625,0c-1.069-.049-2.124-.146-3.165-.285a.208.208,0,0,1-.09,0q-12.543-1.6-22.906-11.2c-.444-.41-.882-.833-1.3-1.25a33.036,33.036,0,0,1-10.683-19.088q-2.2-11.536-3.852-19.512t-16.479-13.466q-10.8-3.783-18.957-3.839h-.292q-38.281,0-38.989,31.236.909,45.049,32.95,78.7a127.708,127.708,0,0,0,10.856,10.3h.042a109.819,109.819,0,0,0,62.409,25.946c2.186.208,4.387.354,6.636.451.75,0,1.485.049,2.242.063h4.762c1.125,0,2.256-.056,3.394-.118l2.138-.132a.325.325,0,0,1,.118,0,10.224,10.224,0,0,0,1.222-.1c2.915-.278,5.858-.694,8.843-1.215.819-.146,1.631-.305,2.45-.472q3.707-.764,7.441-1.784c3.339-.923,6.691-1.992,10.093-3.235q6.49-2.374,13.126-5.553c1.263-.59,2.547-1.229,3.811-1.874s2.561-1.3,3.839-1.992c.34-.167.694-.34,1-.527h0a127.4,127.4,0,0,0,20.393-15.965q36.789-34.63,36.789-85.19Q564.849,417.247,541.776,384.817ZM550.8,239.634a159.381,159.381,0,0,0-12.3-16.4,148.094,148.094,0,0,0-26.078-24.7c-.236-.18-.472-.34-.694-.5a100.136,100.136,0,0,0-23.774-12.758,87.332,87.332,0,0,0-13.744-3.811c-2.9-.562-5.671-1-8.406-1.388-.326-.056-.694-.111-1-.146-.965-.146-1.93-.264-2.9-.382s-1.916-.229-2.874-.305c-3.721-.368-7.274-.541-10.648-.541h-2.638a114.622,114.622,0,0,0-37.483,6.941q-22.212,8.191-41.21,26-36.851,34.089-36.83,81.352,0,32.43,39.017,32.423,27.487,0,36.282-17.582,1.02-4.5,1.735-8.295.614-3.248,1.007-5.99c.264-1.826.437-3.471.555-4.963q2.2-13.188,14.021-22.531,11.675-9.239,25.232-9.322a2.51,2.51,0,0,1,.319,0q24.045,0,33.846,20.13a58.7,58.7,0,0,1,4.394,12.807c.528,2.332.979,4.789,1.333,7.358.1.777.215,1.569.292,2.374q.791,4.914,1.347,8.406,6.025,17.6,36.275,17.6,39.024,0,39.017-32.437A105.168,105.168,0,0,0,550.8,239.634Zm-24.989,99.031a79.952,79.952,0,0,1-21.858-2.721c18.943,9.086,35.178,22.851,48.464,41.12l.076.118a144.658,144.658,0,0,1,13.445,22.976V325.192C558.283,332.9,545.844,338.665,525.811,338.665Z" transform="translate(-214.065 -100.676)" fill="none"/>
      <g id="Component_2_1" data-name="Component 2 – 1" transform="translate(116.148 78.034)">
        <path id="Path_4" data-name="Path 4" d="M550.8,239.634a125.288,125.288,0,0,0-20.824-26.564,127.9,127.9,0,0,0-17.561-14.528c-.236-.18-.472-.34-.694-.5a100.136,100.136,0,0,0-23.774-12.758,87.332,87.332,0,0,0-13.744-3.811c-2.9-.562-5.671-1-8.406-1.388-.326-.056-.694-.111-1-.146-.965-.146-1.93-.264-2.9-.382s-1.916-.229-2.874-.305c-3.721-.368-7.274-.541-10.648-.541h-2.638a114.621,114.621,0,0,0-37.483,6.941q-22.212,8.191-41.21,26-36.851,34.089-36.83,81.352,0,32.43,39.017,32.423,27.487,0,36.282-17.582,1.02-4.5,1.735-8.295.614-3.248,1.006-5.99c.264-1.826.437-3.471.555-4.963q2.2-13.188,14.021-22.531,11.675-9.239,25.232-9.322a2.51,2.51,0,0,1,.319,0q24.045,0,33.846,20.13a58.706,58.706,0,0,1,4.394,12.807c.528,2.332.979,4.789,1.333,7.358.1.777.215,1.569.292,2.374q.791,4.914,1.347,8.406,6.025,17.6,36.275,17.6,39.024,0,39.017-32.437A105.167,105.167,0,0,0,550.8,239.634Zm-9.024,145.184Q515.4,348.556,473.054,339.2q-11.89-1.2-21.247-2.187H439.542a9.714,9.714,0,0,1-2.422-.319q-41.557,6.018-69.836,31.375-3.339,3-6.372,6.157,18.741,20.942,39.149,30.736a87.238,87.238,0,0,0,22.455,7.344q12.494,1.09,23.163,1.888c4.456.333,8.69.611,12.675.861h30.667v48.374q0,10.995-14.486,21.157c-2.242,1.569-4.415,2.964-6.539,4.165a49.336,49.336,0,0,1-11.7,4.991h-.09a29.091,29.091,0,0,1-7.3,1,2.685,2.685,0,0,1-.333,0h-.555a2.456,2.456,0,0,1-.326,0h0a.1.1,0,0,1-.09,0,4.69,4.69,0,0,1-.625,0c-1.069-.049-2.124-.146-3.165-.284a.208.208,0,0,1-.09,0q-9.87-1.451-20.088-9.024a49.587,49.587,0,0,1-4.165-3.471,33.036,33.036,0,0,1-10.683-19.089q-2.2-11.536-3.852-19.512t-16.479-13.466q-10.8-3.783-18.957-3.839H369.2q-38.281,0-38.989,31.236v1.2q0,45.049,34.908,79.686,4.352,4.345,8.926,8.114h.042a109.819,109.819,0,0,0,62.409,25.946c2.187.208,4.387.354,6.636.451.75,0,1.485.049,2.242.063h4.776c1.125,0,2.256-.055,3.394-.118l2.138-.132a.325.325,0,0,1,.118,0,10.236,10.236,0,0,0,1.222-.1c2.915-.278,5.858-.694,8.843-1.215.819-.146,1.631-.305,2.45-.472q3.707-.764,7.441-1.784c3.339-.923,6.691-1.992,10.093-3.235q6.49-2.374,13.126-5.553c1.263-.59,2.547-1.229,3.811-1.874s2.561-1.3,3.839-1.992c.34-.167.694-.34,1-.528h0a127.391,127.391,0,0,0,20.393-15.965q36.789-34.63,36.789-85.19Q564.846,417.247,541.773,384.817Z" transform="translate(-330.21 -178.71)" fill="#fff"/>
      </g>
      <path id="Path_5" data-name="Path 5" d="M423.459,387.382c-.729.153-1.437.326-2.152.5-23.732,5.685-44.32,16.277-61.5,31.673-2.082,1.881-4.123,3.825-6.067,5.8a129,129,0,0,1-13.348-20.824,89.427,89.427,0,0,1-5.8-14.375c.264.194.541.4.819.576,7.753,5.5,18.977,9.253,35.123,9.253,24.9,0,38-9.669,44.882-19.512.312-.437.6-.875.882-1.3,1.451,1.819,3.151,3.825,5.081,5.976C422.071,385.917,422.758,386.687,423.459,387.382Z" transform="translate(-215.401 -161.991)" fill="#ed642b"/>
    </g>
  </g>
</svg>
